<?xml version="1.0" encoding="utf-8"?>
<!-- Generator: Adobe Illustrator 24.1.2, SVG Export Plug-In . SVG Version: 6.00 Build 0)  -->
<svg version="1.1" id="Layer_1" xmlns="http://www.w3.org/2000/svg" xmlns:xlink="http://www.w3.org/1999/xlink" x="0px" y="0px"
	 viewBox="0 0 12 12" style="enable-background:new 0 0 12 12;" xml:space="preserve">
<style type="text/css">
	.st0{fill:#B2B2B2;stroke:#EDEDED;stroke-miterlimit:10;}
	.st1{fill:#9D9D9C;}
	.st2{fill:#FFFFFF;}
	.st3{fill:#575756;}
</style>
<path d="M0.8,3.12c0.81,0.06,1.12,0.69,1.33,1.5C2.27,5.18,2.48,5.73,2.6,6.3c0.13,0.63,0.23,1.27,0.25,1.92
	c0.02,0.56-0.1,0.61-0.57,0.53C2.11,8.72,1.95,8.71,1.8,8.73c-0.06,0.01-0.1,0.12-0.15,0.19c0.38-0.06,0.7-0.08,0.98,0.29
	C2.3,9.36,2.02,9.49,1.65,9.67c0.23,0.12,0.34,0.19,0.44,0.24c-0.1,0.27-0.2,0.51-0.3,0.76c0.04,0.03,0.07,0.05,0.11,0.08
	c0.07-0.05,0.16-0.1,0.22-0.16c0.38-0.4,0.42-0.39,0.77,0.05c0.12,0.14,0.28,0.23,0.43,0.34c0.4,0.3,0.71-0.1,1.06-0.18
	c0.21-0.05,0.5,0,0.67,0.14c0.22,0.03,0.44,0.08,0.67,0.1c0.25,0.02,0.48-0.02,0.71-0.05c0.01-0.01,0.03-0.02,0.04-0.03
	c0.15-0.09,0.34-0.07,0.51-0.13c0.37-0.12,0.75-0.23,1.11-0.38c0.08-0.03,0.15-0.18,0.18-0.29C8.41,9.7,8.7,9.58,9.05,9.71
	c0.54,0.19,0.98,0.14,1.37-0.42c0.03-0.04,0.06-0.08,0.1-0.11c0.07-0.18,0.16-0.35,0.25-0.53c0,0,0-0.01,0-0.01
	c-0.01-0.12,0.11-0.26,0.19-0.37c0.06-0.08,0.14-0.14,0.18-0.18c-0.01-0.18-0.01-0.31-0.03-0.45c-0.06-0.43-0.07-0.88-0.2-1.27
	c-0.17-0.53-0.13-0.75,0.3-0.99c0.44-0.24,0.53-0.65,0.23-1.11C10.97,3.54,9.9,3.48,9.31,4.16C8.99,4.53,9,4.96,9.34,5.31
	C9.66,5.64,9.65,5.74,9.33,6.1C9.21,6.24,9.01,6.44,9.04,6.57c0.08,0.46-0.06,0.84-0.2,1.23c-0.04,0.1-0.03,0.26,0.01,0.37
	c0.07,0.19,0.05,0.26,0.02,0.31C8.8,8.64,8.47,8.59,8.28,8.55c-0.01,0-0.01,0-0.02,0C8.09,8.51,8.04,8.04,8.02,7.7
	c0.01-0.28,0.04-0.68,0.12-1.14C8.3,5.71,8.55,5.15,8.81,4.49c0.33-0.89,0.63-1.41,1-1.45c0.08-0.01,0.26,0.06,0.26-0.06
	c0-0.49-0.02-0.98-0.04-1.47c0-0.03-0.12-0.07-0.18-0.08C9.44,1.39,9.03,1.36,8.68,1.69C8.42,1.94,8.13,1.94,7.81,1.84
	C7.42,1.72,7.02,1.62,6.62,1.6C5.77,1.56,4.93,1.58,4.08,1.58c-0.23,0-0.46,0.06-0.68,0.06c-0.23,0-0.46-0.01-0.68-0.08
	C2.53,1.52,2.37,1.38,2.2,1.29C1.18,0.8,0.71,1.09,0.51,2.34C0.49,2.47,0.44,2.62,0.49,2.72C0.56,2.88,0.69,3.12,0.8,3.12z
	 M8.91,8.99c0.33-0.11,0.51-0.31,0.75-0.55c0.11-0.11,0.2-0.22,0.2-0.37c0-0.1-0.07-0.19-0.16-0.36C9.52,7.37,9.34,6.84,9.44,6.53
	c0.12-0.38,0.55-0.62,0.88-0.97c0.15,0.37,0.26,0.63,0.35,0.89c0.08,0.24,0.05,0.47-0.19,0.53c-0.45,0.11-0.48,0.42-0.36,0.86
	c0.04,0.15,0.06,0.31,0.08,0.47c0.07,0.92-0.25,1.26-1.02,1.09C8.6,9.28,8.25,9.47,7.91,10.08c-0.06,0.1-0.15,0.2-0.24,0.24
	c-0.69,0.28-1.39,0.49-2.13,0.38c-0.26-0.04-0.4-0.19-0.3-0.52c0.1-0.31,0.04-0.58-0.23-0.65c-0.28-0.07-0.59-0.07-0.86,0
	C3.83,9.61,3.68,9.86,3.8,10.29c0.03,0.12-0.03,0.38-0.11,0.42c-0.1,0.06-0.29,0-0.39-0.08c-0.29-0.25-0.27-0.62-0.22-1
	C3.14,9.2,3.41,8.99,3.69,8.97c0.78-0.06,1.57-0.52,2.34,0.1C6.2,9.19,6.63,9.21,6.7,9.08C6.81,8.9,6.93,8.79,7.06,8.74
	c0.22-0.1,0.46-0.01,0.56,0.03C7.72,8.8,7.8,8.85,7.86,8.89C8.1,9.25,8.69,9.06,8.91,8.99z M5.56,4.85
	C5.55,4.57,5.35,4.27,5.17,4.04C4.89,3.67,4.37,3.6,4.06,3.83c-0.4,0.3-0.58,0.84-0.43,1.37c0.09,0.32,0.22,0.62,0.31,0.94
	c0.19,0.62,0.22,1.24,0.04,1.85c-0.2-0.93-0.41-1.85-0.59-2.77C3.22,4.36,3.77,3.34,4.51,3.2c0.21-0.04,0.48,0.09,0.66,0.25
	C5.63,3.86,5.89,4.4,5.93,5.11c0.06,1.05-0.15,2.04-0.36,3.03c-0.03,0-0.07-0.01-0.1-0.01c0.02-0.26,0.05-0.51,0.06-0.77
	C5.54,6.53,5.59,5.69,5.56,4.85z M8.15,5.07C8.05,6.05,7.89,7.02,7.74,8C7.73,8.1,7.66,8.18,7.62,8.28c-0.04,0-0.08,0-0.12-0.01
	c0-0.21-0.04-0.43-0.01-0.64c0.15-0.86,0.33-1.72,0.48-2.57c0.1-0.56-0.23-1.1-0.7-1.19C6.96,3.81,6.72,4.04,6.65,4.51
	C6.58,4.92,6.55,5.35,6.5,5.77C6.2,4.93,6.43,3.82,6.88,3.42c0.51-0.44,0.97-0.27,1.14,0.46C8.1,4.27,8.19,4.68,8.15,5.07z
	 M2.54,2.79C2.57,2.76,2.6,2.74,2.62,2.73C2.64,2.71,2.67,2.69,2.7,2.66c0.03-0.02,0.05-0.03,0.08-0.04c0.03-0.02,0,0,0.15-0.08
	c0.09-0.05,0.14-0.07,0.15-0.08c0.06-0.02,0.07-0.02,0.13-0.04C3.26,2.4,3.3,2.38,3.32,2.36c0.04-0.02,0.09-0.05,0.17-0.08
	c0.18-0.07,0.33-0.07,0.38-0.07c0.46-0.01,0.7-0.02,0.9,0c0.56,0.04,0.52-0.06,1.29-0.06c0.36,0,0.72,0.03,1.08,0.06
	c0.43,0.04,0.86,0.06,1.28,0.13c0.18,0.03,0.4,0.12,0.5,0.27c0.15,0.23,0.18,0.53-0.05,0.77c-0.11,0.12-0.2,0.28-0.34,0.48
	C8.43,3.7,8.36,3.59,8.3,3.47c-0.39-0.76-0.99-0.91-1.6-0.4C6.54,3.2,6.37,3.32,6.27,3.5C6.06,3.85,5.9,3.74,5.69,3.51
	C4.98,2.73,4.22,2.67,3.5,3.41C3.06,3.87,3.04,3.86,2.69,3.26C2.62,3.14,2.54,3.02,2.47,2.89C2.48,2.86,2.51,2.83,2.54,2.79z
	 M1.87,1.76L1.85,2.71C1.53,2.34,1.55,2.08,1.87,1.76z"/>
</svg>
